/* XPM */
static char *f3176504d9104197fa161ff804047b4fJGHmezpgz0pvTLN6[] = {
/* columns rows colors chars-per-pixel */
"32 32 20 1 ",
"  c #202036",
". c #37322C",
"X c #3E372D",
"o c #4F3D23",
"O c #295E00",
"+ c #4F422F",
"@ c #59462F",
"# c #6D542C",
"$ c #7F6A4C",
"% c #8E5567",
"& c #439C00",
"* c #AC8B61",
"= c #B77187",
"- c #C3AB8D",
"; c #E08EA8",
": c #CFBCA4",
"> c #EFA5BC",
", c #FFBCD1",
"< c #FDDAE5",
"1 c white",
/* pixels */
"            %%%%%%%             ",
"          %%;;;<;;;%%           ",
"         %=;>,<<<,>;=%          ",
"      %%%=;>,,,<,,,>;=%%%       ",
"     %;<>>;><,,,,,<>;>><;%      ",
"    %;<<<,><<<,,,<<<>,<<<;%     ",
"   %;>,<,,,,<,,,,,<,,,,<,>;%    ",
"   %;>>>,,,,,,,<,,,,,,,>>>;%    ",
"   %=;,,<,,>,,<<<,,>,,<,,=%%    ",
"  %;;,,<<<,;>,,<,,>;,<<<,,;;%   ",
" %;;>,,,<,>=;>>>>>;=,,<,,,>;;%  ",
"%;;;,>,,,>;==;;;;;==;,,,,>,;;;% ",
"%;;,,,>>>;=$$=====$$=;>>>,,,;;% ",
"%;;;,;;===$$+$$$$$+$$===;;,;;;% ",
"%=;;;;;;=$$+1$$$$$1+$$=;;;;;;=% ",
" %=;;;;;=$$OO$$$$$OO$$=;;;;;=%  ",
"  %%;;;=#$$&&$$$$$&&$$#=;;;%%   ",
"    %%%Xo#$$$::.::$$$#oX%%%     ",
"        .o#$::@*@::$#o.         ",
"         ..o*-----*o..          ",
"          ...........           ",
"         .#$#######$#.          ",
"        .#$o$$$$$$$o$#.         ",
"       .o#o.$$$$$$$.o#o.        ",
"       .oo..$$$$$$$..oo.        ",
"        .. .#$$$$$#. ..         ",
"           .#ooooo#.            ",
"           .##...##.            ",
"           .##. .##.            ",
"           .oo. .oo.            ",
"            ..   ..             ",
"                                "
};
